<svg id="Layer_1" enable-background="new 0 0 512.001 512.001" height="512" viewBox="0 0 512.001 512.001" width="512" xmlns="http://www.w3.org/2000/svg"><g><g clip-rule="evenodd" fill-rule="evenodd"><path d="m30 106.003h191.35c-3.404-5.884-5.352-12.715-5.352-20.001s1.948-14.117 5.353-20.001h-171.35c-10.999 0-20 9.001-20 20v20.002z" fill="#b5b3ee"/><path d="m221.351 66.002c-3.404 5.884-5.352 12.715-5.352 20.001s1.948 14.117 5.352 20.001c6.917 11.957 19.844 20.001 34.65 20.001s27.733-8.044 34.65-20.001c3.404-5.884 5.352-12.715 5.352-20.001s-1.948-14.117-5.352-20.001c-6.917-11.956-19.844-20.001-34.65-20.001-14.807 0-27.734 8.044-34.65 20.001z" fill="#6d91ac"/><path d="m290.65 66.002c3.404 5.884 5.352 12.715 5.352 20.001s-1.948 14.117-5.353 20.001h191.351v-20.003c0-11-9.001-20-20-20h-171.35z" fill="#b5b3ee"/><path d="m256.001 375.999h-226.001v40.001h166c0 5.5 4.499 10 10 10h100c5.5 0 10-4.5 10-10h166v-40.001h-67.706-90.589z" fill="#b5b3ee"/><path d="m306.001 426h-100.001c-5.5 0-10-4.5-10-10h-166-20v30c0 11 9 20 20 20h452.002c11 0 20-9 20-20v-30h-20.001-166.001c0 5.501-4.499 10-9.999 10z" fill="#8481e2"/><path d="m30 375.999h226.001v-40.001h-45.908-134.185-45.908z" fill="#c68a65"/><path d="m394.883 166.884c0-14.235-11.647-25.882-25.883-25.882s-25.883 11.647-25.883 25.882v12.942c0 6.616 2.516 12.674 6.639 17.262 4.747 5.284 11.625 8.62 19.244 8.62s14.496-3.336 19.244-8.62c4.123-4.589 6.639-10.646 6.639-17.262z" fill="#ffdcd5"/><path d="m388.244 197.088c-4.747 5.284-11.625 8.62-19.244 8.62s-14.497-3.336-19.243-8.621c-15.359 7.268-26.049 22.932-26.052 40.974v2.94h90.59v-2.94c.004-18.041-10.692-33.706-26.051-40.973z" fill="#ffc144"/><path d="m394.883 301.882c0-14.236-11.647-25.883-25.882-25.883-14.236 0-25.883 11.647-25.883 25.883v12.942c0 6.616 2.516 12.674 6.639 17.262 4.747 5.284 11.625 8.62 19.244 8.62s14.496-3.336 19.244-8.62c4.123-4.589 6.639-10.646 6.639-17.262v-12.942z" fill="#ffdcd5"/><path d="m388.244 332.086c-4.748 5.284-11.625 8.62-19.244 8.62s-14.497-3.336-19.243-8.621c-15.36 7.268-26.049 22.932-26.052 40.974l-.001 2.94h90.59v-2.94c.005-18.041-10.691-33.706-26.05-40.973z" fill="#00ccf2"/><path d="m349.756 332.086c-4.123-4.589-6.639-10.646-6.639-17.262v-12.942c0-14.236 11.647-25.883 25.883-25.883s25.883 11.647 25.883 25.883v12.941c0 6.617-2.516 12.674-6.639 17.262.31.147.618.297.925.45 14.862 7.452 25.126 22.847 25.126 40.523v2.94h67.706v-134.997h-67.706-90.59-67.705v94.997 40.002h67.704l.001-2.94c.004-18.043 10.693-33.707 26.051-40.974z" fill="#b8ecbb"/><path d="m256.001 241.001h67.705v-2.94c.003-18.042 10.692-33.706 26.05-40.973-4.123-4.589-6.639-10.646-6.638-17.262v-12.942c0-14.236 11.647-25.883 25.883-25.883s25.883 11.648 25.883 25.883v12.941c0 6.616-2.516 12.674-6.639 17.262.31.147.618.297.925.45 1.462.733 2.879 1.543 4.246 2.424 12.536 8.078 20.883 22.161 20.88 38.099v2.94h67.706v-134.997h-191.352c-6.917 11.957-19.844 20.001-34.65 20.001v114.997z" fill="#ff9eb1"/><path d="m181.338 217.994c0-21.086-17.252-38.338-38.338-38.338s-38.338 17.252-38.338 38.338v19.169c0 9.8 3.727 18.773 9.833 25.569 7.032 7.827 17.219 12.768 28.505 12.768s21.472-4.942 28.505-12.768c6.106-6.797 9.833-15.769 9.833-25.569z" fill="#ffdcd5"/><path d="m171.505 262.733c-7.033 7.827-17.219 12.769-28.504 12.769-11.286 0-21.473-4.942-28.503-12.77-22.751 10.766-38.589 33.968-38.588 60.691v12.575h134.183v-12.575c-.001-26.723-15.838-49.926-38.588-60.69z" fill="#ff5d7d"/><path d="m114.495 262.734c-6.106-6.797-9.833-15.769-9.832-25.569v-19.169c0-21.086 17.251-38.339 38.337-38.339s38.338 17.252 38.338 38.339v19.169c0 9.8-3.727 18.772-9.833 25.569 22.75 10.764 38.587 33.967 38.588 60.69v12.575h45.908v-94.997-114.998c-14.806 0-27.733-8.044-34.65-20.001h-191.351v229.995h45.909v-12.575c-.001-26.723 15.837-49.926 38.586-60.689z" fill="#fff"/></g><g><path d="m502.001 406h-10v-319.999c0-16.542-13.458-30-30.001-30h-166.026c-9.131-12.136-23.65-20-39.973-20s-30.843 7.864-39.974 20h-166.026c-16.543 0-30.001 13.458-30.001 30v319.999h-10c-5.522 0-10 4.477-10 10v30c0 16.542 13.458 30 30 30h452.001c16.542 0 30-13.458 30-30v-30c0-5.522-4.478-10-10-10zm-117.118-91.176c0 8.757-7.125 15.882-15.883 15.882s-15.883-7.125-15.883-15.882v-12.942c0-8.757 7.125-15.882 15.883-15.882s15.883 7.125 15.883 15.882zm-36.267 29.507c5.794 4.015 12.817 6.375 20.384 6.375 7.575 0 14.604-2.365 20.401-6.387 7.364 5.216 12.401 12.94 14.177 21.68h-69.128c1.817-8.664 6.905-16.466 14.166-21.668zm75.225 21.668c-1.897-14.91-9.744-28.272-21.781-37.225 1.817-4.291 2.823-9.005 2.823-13.95v-12.942c0-19.786-16.097-35.882-35.883-35.882s-35.883 16.097-35.883 35.882v12.942c0 4.945 1.006 9.66 2.823 13.951-12.039 8.952-19.885 22.31-21.781 37.224h-48.158v-114.998h205.999.001v114.998h-.001zm-177.84-231.001v191h-.001-25.907v-2.573c0-26.013-12.896-49.738-34.211-63.992 3.478-6.67 5.456-14.24 5.456-22.268v-19.17c0-26.654-21.685-48.338-48.338-48.338s-48.338 21.684-48.338 48.338v19.17c0 8.028 1.978 15.598 5.456 22.267-21.317 14.252-34.21 37.971-34.21 63.993v2.573h-25.908v-209.995h.001 176.025c7.217 9.591 17.797 16.513 29.975 18.995zm49.974-18.995h176.025.001v114.998h-.001-48.159c-1.897-14.91-9.744-28.272-21.781-37.225 1.817-4.291 2.823-9.005 2.823-13.951v-12.942c0-19.786-16.097-35.882-35.883-35.882s-35.883 16.097-35.883 35.882v12.942c0 4.945 1.006 9.66 2.823 13.951-12.039 8.952-19.885 22.31-21.781 37.224h-48.158v-96.003c12.177-2.481 22.758-9.403 29.974-18.994zm88.908 63.823c0 8.758-7.125 15.883-15.883 15.883s-15.883-7.125-15.883-15.883v-12.942c0-8.757 7.125-15.882 15.883-15.882s15.883 7.125 15.883 15.882zm-36.268 29.507c5.794 4.015 12.817 6.376 20.385 6.376 7.575 0 14.604-2.365 20.401-6.387 7.363 5.216 12.4 12.94 14.177 21.68h-69.128c1.816-8.664 6.904-16.467 14.165-21.669zm-233.953 27.832v-19.17c0-15.625 12.712-28.338 28.338-28.338s28.338 12.712 28.338 28.338v19.17c0 15.626-12.712 28.338-28.338 28.338s-28.338-12.712-28.338-28.338zm-74.662 108.833h57.997c5.522 0 10-4.477 10-10s-4.478-10-10-10h-12.089v-2.573c0-19.923 10.228-38.032 27.019-48.458 8.261 6.586 18.712 10.536 30.073 10.536s21.811-3.95 30.072-10.535c16.79 10.426 27.021 28.542 27.021 48.457v2.573h-12.096c-5.522 0-10 4.477-10 10s4.478 10 10 10h58.003.001v20.001h-206-.001zm422-269.997c5.515 0 10.001 4.486 10.001 10v10.002h-.001-167.004c.659-3.232 1.006-6.576 1.006-10s-.347-6.768-1.006-10.001h157.004zm-205.999-20c16.543 0 30.001 13.458 30.001 30.001s-13.458 30.001-30.001 30.001-30.002-13.458-30.002-30.001 13.459-30.001 30.002-30.001zm-206 20h157.004c-.659 3.232-1.006 6.577-1.006 10.001s.347 6.768 1.006 10h-167.004-.001v-10.001c0-5.514 4.486-10 10.001-10zm-10.001 329.999v-20.001h.001 431.999.001v20.001h-156.001c-5.522 0-9.999 4.477-9.999 10h-100.001c0-5.523-4.478-10-10-10zm452.001 40c0 5.514-4.486 10-10 10h-452.001c-5.514 0-10-4.486-10-10v-20h168.684c3.464 5.974 9.929 10 17.316 10h100.001c7.388 0 13.853-4.026 17.315-10h168.685z"/><path d="m256.004 96.002c5.522 0 10-4.477 10-10s-4.478-10-10-10h-.007c-5.522 0-9.997 4.477-9.997 10s4.481 10 10.004 10z"/><path d="m143 345.998c5.522 0 10-4.477 10-10s-4.478-10-10-10h-.007c-5.522 0-9.996 4.477-9.996 10s4.481 10 10.003 10z"/></g></g></svg>