<svg id="Capa_1" enable-background="new 0 0 512 512" height="512" viewBox="0 0 512 512" width="512" xmlns="http://www.w3.org/2000/svg"><g><g><g><circle cx="401.021" cy="174.27" fill="#ecf4ff" r="110.979"/></g><g><path d="m460.305 80.443c10.86 17.151 17.151 37.482 17.151 59.284 0 61.292-49.687 110.979-110.979 110.979-21.802 0-42.132-6.292-59.284-17.151 19.67 31.066 54.338 51.695 93.827 51.695 61.293-.001 110.98-49.688 110.98-110.98 0-39.49-20.629-74.157-51.695-93.827z" fill="#ddeafb"/></g><g><path d="m466.292 144.102-26.981 15.577c-1.482.856-3.334-.214-3.334-1.925v-6.983c0-6.138-4.976-11.114-11.114-11.114h-77.113c-6.138 0-11.114 4.976-11.114 11.114v51.617c0 6.138 4.976 11.114 11.114 11.114h77.114c6.138 0 11.114-4.976 11.114-11.114v-6.983c0-1.711 1.852-2.78 3.334-1.925l26.981 15.577c3.704 2.139 8.335-.535 8.335-4.812v-55.331c0-4.277-4.631-6.951-8.336-4.812z" fill="#524798"/></g><g><path d="m466.292 209.057c3.705 2.139 8.335-.535 8.335-4.812v-39.515c-3.283 14.257-9.314 27.463-17.503 39.034z" fill="#453d81"/></g></g><g><g><path d="m460.504 388.754-73.369-73.369c-12.703-12.703-33.298-12.703-46.001 0l-40.072 40.072c-11 11-16.753 26.192-15.797 41.719l.525 8.528c.137 2.228-1.874 4.005-4.062 3.557-18.099-3.704-35.345-12.544-49.358-26.556l-105.044-105.042c-14.012-14.012-22.852-31.259-26.556-49.358-.448-2.187 1.328-4.199 3.557-4.062l8.528.525c15.528.955 30.719-4.797 41.719-15.797l40.072-40.072c12.703-12.703 12.703-33.298 0-46.001l-73.369-73.369c-12.703-12.703-33.298-12.703-46.001 0-9.117 9.056-20.288 19.804-27.402 30.37-66.881 77.119-63.69 194.344 9.591 267.625l105.044 105.043c73.281 73.281 190.506 76.472 267.625 9.591 10.54-7.091 21.341-18.31 30.37-27.402 12.703-12.703 12.703-33.299 0-46.002z" fill="#5e54ac"/></g><g><g><path d="m460.504 388.754-25.413-25.413c7.043 12.535 5.241 28.699-5.425 39.365-9.132 9.196-20.057 20.543-30.716 27.715-71.47 61.982-176.989 64.449-251.175 7.412l14.735 14.735c73.281 73.281 190.506 76.472 267.625 9.591 10.54-7.091 21.341-18.31 30.37-27.402 12.702-12.704 12.702-33.3-.001-46.003z" fill="#524798"/></g></g><g><g><path d="m195.261 79.036c-4.257 0-7.757-3.401-7.855-7.68-.106-4.625-1.963-8.97-5.227-12.234-3.265-3.265-7.609-5.121-12.234-5.227-4.34-.099-7.778-3.699-7.679-8.039.1-4.34 3.742-7.771 8.039-7.679 8.687.199 16.852 3.689 22.99 9.827s9.628 14.302 9.827 22.99c.1 4.34-3.338 7.94-7.678 8.039-.06.002-.122.003-.183.003z" fill="#524798"/></g><g><path d="m231.464 74.598c-4.055 0-7.494-3.116-7.826-7.229-1.035-12.816-6.618-24.886-15.719-33.987s-21.171-14.684-33.987-15.719c-4.327-.35-7.552-4.141-7.203-8.468.35-4.327 4.151-7.547 8.468-7.203 16.533 1.335 32.102 8.535 43.839 20.273 11.738 11.738 18.937 27.307 20.273 43.839.35 4.327-2.875 8.118-7.203 8.468-.216.017-.43.026-.642.026z" fill="#524798"/></g></g></g></g></svg>