<svg id="Capa_1" enable-background="new 0 0 512 512" height="512" viewBox="0 0 512 512" width="512" xmlns="http://www.w3.org/2000/svg"><g><path d="m499.351 437.381h-486.702c-6.986 0-12.649-5.663-12.649-12.648v-103.34c0-6.986 5.663-12.649 12.649-12.649h486.703c6.986 0 12.649 5.663 12.649 12.649v103.339c-.001 6.986-5.664 12.649-12.65 12.649z" fill="#d5efc8"/><g fill="#ade194"><path d="m241.824 360.682c0-11.36-9.57-20.601-21.333-20.601h-13.224c-.003 0-.005 0-.008 0s-.005 0-.008 0c-4.235 0-7.668 3.433-7.668 7.668v49.763c0 4.235 3.433 7.668 7.668 7.668s7.668-3.433 7.668-7.668v-10.25l13.48 15.316c1.516 1.722 3.632 2.602 5.759 2.602 1.799 0 3.606-.629 5.063-1.912 3.179-2.798 3.488-7.643.69-10.822l-11.222-12.75c7.705-3.11 13.135-10.46 13.135-19.014zm-21.333 5.264c-1.322 0-3.394.007-5.506.017-.009-2.036-.021-8.406-.027-10.546h5.533c3.194 0 5.996 2.46 5.996 5.264 0 2.805-2.802 5.265-5.996 5.265z"/><path d="m59.746 345.528c-1.363-3.31-4.555-5.448-8.144-5.448-3.583.004-6.775 2.149-8.131 5.466-.024.058-.047.116-.069.174l-18.686 49.062c-1.507 3.958.479 8.388 4.437 9.895 3.959 1.509 8.388-.479 9.895-4.437l2.773-7.28h19.437s2.738 7.255 2.739 7.258c1.501 3.977 5.943 5.954 9.882 4.467 3.962-1.495 5.962-5.919 4.467-9.882l-18.517-49.063c-.027-.071-.055-.142-.083-.212zm-12.085 32.096 3.922-10.298 3.886 10.298z"/><path d="m385 397.512c0 4.235 3.433 7.668 7.668 7.668h20.777c4.235 0 7.668-3.433 7.668-7.668s-3.433-7.668-7.668-7.668h-13.109v-9.318h11.577c4.235 0 7.668-3.433 7.668-7.668s-3.433-7.668-7.668-7.668h-11.577v-9.318h13.109c4.235 0 7.668-3.433 7.668-7.668s-3.433-7.668-7.668-7.668h-20.777c-4.235 0-7.668 3.433-7.668 7.668z"/><path d="m358.78 345.423-10.17 30.614-10.692-30.803c-1.389-4.001-5.759-6.118-9.759-4.73-4.001 1.389-6.118 5.758-4.73 9.759l17.032 49.067c1.245 3.505 4.569 5.849 8.284 5.849h.059c3.738-.025 7.06-2.42 8.282-6.012l16.248-48.91c1.335-4.019-.841-8.359-4.86-9.695-4.02-1.335-8.359.842-9.694 4.861z"/><path d="m97.429 340.081c-4.175 0-7.505 3.272-7.654 7.389-.003.093-.014 50.042-.014 50.042 0 4.235 3.433 7.668 7.668 7.668s7.668-3.433 7.668-7.668v-13.988c2.353-.011 4.716-.02 6.188-.02 12.123 0 21.987-9.74 21.987-21.712s-9.863-21.711-21.987-21.711zm20.506 21.711c0 3.456-3.045 6.375-6.65 6.375-1.461 0-3.796.009-6.133.02-.011-2.435-.02-4.885-.02-6.395 0-1.292-.006-3.817-.012-6.375h6.166c3.604 0 6.649 2.919 6.649 6.375z"/><path d="m152.419 340.081c-4.199 0-7.667 3.482-7.668 7.668v49.763c0 4.235 3.433 7.668 7.668 7.668s7.668-3.433 7.668-7.668v-13.988c2.353-.011 4.716-.02 6.188-.02 12.123 0 21.986-9.74 21.986-21.712s-9.863-21.711-21.986-21.711c0 0-13.85 0-13.856 0zm20.506 21.711c0 3.456-3.045 6.375-6.65 6.375-1.462 0-3.796.009-6.133.02-.011-2.435-.02-4.885-.02-6.395 0-1.292-.006-3.817-.012-6.375h6.165c3.605 0 6.65 2.919 6.65 6.375z"/><path d="m251.529 372.63c0 17.948 14.602 32.55 32.55 32.55s32.549-14.602 32.549-32.55-14.602-32.549-32.549-32.549c-17.948 0-32.55 14.601-32.55 32.549zm49.763 0c0 9.491-7.722 17.213-17.213 17.213s-17.214-7.722-17.214-17.213 7.722-17.213 17.214-17.213 17.213 7.722 17.213 17.213z"/><path d="m440.627 402.954c1.437 1.426 3.379 2.226 5.402 2.226h.029c.426-.001 10.485-.04 14.511-.11 15.771-.276 27.217-13.919 27.217-32.44 0-19.469-11.157-32.549-27.764-32.549h-14.094c-2.036 0-3.989.81-5.427 2.251-1.439 1.441-2.245 3.395-2.241 5.432 0 0 .036 19.139.036 24.812 0 6.919.064 24.964.064 24.964.009 2.033.823 3.981 2.267 5.414zm19.396-47.537c11.531 0 12.427 13.175 12.427 17.213 0 8.409-3.757 16.958-12.148 17.105-1.555.027-4.108.05-6.63.067-.018-5.757-.039-13.294-.039-17.227 0-3.301-.012-11.158-.022-17.159h6.412z"/></g><path d="m511.995 321.39v103.342c0 6.989-5.655 12.654-12.643 12.654h-20.781c6.978 0 12.643-5.665 12.643-12.654v-103.342c0-6.978-5.665-12.643-12.643-12.643h20.781c6.989-.001 12.643 5.664 12.643 12.643z" fill="#c1e9af"/><circle cx="256" cy="195.861" fill="#ade194" r="121.246"/><path d="m377.25 195.86c0 66.962-54.288 121.25-121.25 121.25-21.161 0-41.07-5.429-58.383-14.973 12.397 4.29 25.697 6.609 39.541 6.609 66.962 0 121.25-54.288 121.25-121.25 0-45.811-25.41-85.681-62.908-106.298 47.576 16.379 81.75 61.534 81.75 114.662z" fill="#97da7b"/><g><path d="m239.386 250.724c-5.019 0-9.852-1.948-13.471-5.447l-32.284-31.202c-7.697-7.441-7.907-19.713-.467-27.411 7.44-7.697 19.71-7.91 27.412-.467l18.023 17.419 52.056-56.381c7.262-7.867 19.527-8.356 27.394-1.093 7.865 7.263 8.355 19.528 1.092 27.394l-65.51 70.954c-3.539 3.834-8.475 6.079-13.691 6.228-.185.003-.37.006-.554.006z" fill="#faf7f7"/></g><g><path d="m319.144 173.54-65.515 70.944c-3.541 3.838-8.477 6.086-13.69 6.229-.185.01-.369.01-.554.01-5.018 0-9.852-1.95-13.475-5.449l-6.435-6.219c1.026.164 2.063.246 3.11.246.185 0 .38-.01.575-.01 5.449-.154 10.601-2.504 14.306-6.506l68.44-74.125c4.31-4.669 6.003-10.816 5.162-16.656 2.514.842 4.895 2.217 6.978 4.136 7.872 7.265 8.354 19.528 1.098 27.4z" fill="#ede1dd"/></g></g></svg>