<svg id="Layer_1" enable-background="new 0 0 512.5 512.5" height="512" viewBox="0 0 512.5 512.5" width="512" xmlns="http://www.w3.org/2000/svg"><g><path d="m512.212 203.854c-.314-3.737-3.711-6.813-7.462-6.751h-96.17v-100.624h22.085c26.599 0 48.239-21.64 48.239-48.239s-21.64-48.24-48.239-48.24h-324.357c-9.697 0-9.697 15 0 15h17.987v66.479h-108.85c-4.142 0-7.5 3.358-7.5 7.5v26.953c0 9.697 15 9.697 15 0v-19.453h206.138v100.624h-206.138v-42.977c0-9.697-15-9.697-15 0v50.477c0 4.142 3.358 7.5 7.5 7.5h35.902v98.216h-6.924c-24.357 0-44.174 19.816-44.174 44.174s19.816 44.174 44.174 44.174h12.182c-41.111 36.161-21.441 105.003 32.595 112.683 4.544.635 9.487 1.15 14.05 1.15.054 0 .217-.002.163-.002-.163 0 252.562-.371 276.09-.498 11.508.238 11.409-15.091-.081-15h-281.172c-53.232 0-66.152-78.185-16.121-95.605 8.012-1.998 11.411-2.645 16.121-2.645 0 0 354.674.053 375.167.017v22.677h-301.41c-9.697 0-9.697 15 0 15h301.409v22.778h-219.389c-9.697 0-9.697 15 0 15h219.389v22.778h-52.154c-9.697 0-9.697 15 0 15h79.654c9.697 0 9.697-15 0-15h-12.5v-98.276c4.186-.017 8.373-.032 12.546-.058 9.696-.059 9.608-15.133-.092-15-6.28.039-76.593 0-76.593 0v-58.348h80.473c4.142 0 7.5-3.358 7.5-7.5v-113.215c0-.252-.013-.501-.038-.749zm-118.632-6.751h-24.997-2.5v-100.624h27.497zm-254.285-140.532h163.427c9.697 0 9.697-15 0-15h-163.427v-26.571h291.37c18.328 0 33.239 14.911 33.239 33.239s-14.911 33.239-33.239 33.239h-291.37zm104.788 39.908h107v100.624h-107zm-177.735 115.624h294.736v98.216h-294.736zm342.929 136.448h-97.815c-9.697 0-9.697 15 0 15h97.815v20.104c-17.414-.08-364.854.011-364.854.011-16.086 0-29.174-13.087-29.174-29.174s13.087-29.174 29.174-29.174h364.854zm87.973-38.232h-121.167v-98.216h121.167z"/><path d="m212.25 238.711h-102.009c-12.406 0-22.5 10.093-22.5 22.5s10.093 22.5 22.5 22.5h102.009c12.407 0 22.5-10.093 22.5-22.5s-10.093-22.5-22.5-22.5zm0 30h-102.009c-4.135 0-7.5-3.364-7.5-7.5s3.364-7.5 7.5-7.5h102.009c4.136 0 7.5 3.364 7.5 7.5s-3.364 7.5-7.5 7.5z"/><path d="m412.583 268.711h48.833c9.697 0 9.697-15 0-15h-48.833c-9.697 0-9.697 15 0 15z"/><path d="m324.917 126.625c-4.142 0-7.5 3.358-7.5 7.5v26.163c0 4.142 3.358 7.5 7.5 7.5s7.5-3.358 7.5-7.5v-26.163c0-4.142-3.358-7.5-7.5-7.5z"/><path d="m297.583 126.625c-4.142 0-7.5 3.358-7.5 7.5v26.163c0 4.142 3.358 7.5 7.5 7.5s7.5-3.358 7.5-7.5v-26.163c0-4.142-3.357-7.5-7.5-7.5z"/><path d="m270.25 126.625c-4.142 0-7.5 3.358-7.5 7.5v26.163c0 4.142 3.358 7.5 7.5 7.5s7.5-3.358 7.5-7.5v-26.163c0-4.142-3.358-7.5-7.5-7.5z"/></g></svg>