<svg id="Capa_1" enable-background="new 0 0 512 512" height="512" viewBox="0 0 512 512" width="512" xmlns="http://www.w3.org/2000/svg"><g><g><path d="m497 512h-360c-8.291 0-15-6.709-15-15v-150c0-5.684 3.223-10.869 8.291-13.418l60-30c4.219-2.109 9.199-2.109 13.418 0l53.291 26.646 53.291-26.646c4.219-2.109 9.199-2.109 13.418 0l53.291 26.646 53.291-26.646c4.219-2.109 9.199-2.109 13.418 0l60 30c5.068 2.549 8.291 7.734 8.291 13.418v150c0 8.291-6.709 15-15 15z" fill="#e6f7ff"/></g><path d="m512 497v-150c0-5.684-3.223-10.869-8.291-13.418l-60-30c-4.219-2.109-9.199-2.109-13.418 0l-53.291 26.646-53.291-26.646c-2.109-1.055-4.409-1.582-6.709-1.582v210h180c8.291 0 15-6.709 15-15z" fill="#c2dbf2"/><g><path d="m315 75-30-75h-270c-8.401 0-15 6.599-15 15v270c0 5.099 2.701 9.899 7.2 12.9 4.2 2.699 9.901 2.699 14.399.601l53.401-26.701 53.401 26.7c4.199 2.098 9 2.098 13.198 0l53.401-26.7 53.401 26.7c4.625 1.981 8.466 2.028 13.198 0l53.401-26.7 53.401 26.7c4.499 2.399 10.199 2.098 14.399-.601 4.499-3.001 7.2-7.8 7.2-12.9v-179.999z" fill="#e6f7ff"/></g><path d="m285 0h-90v271.8l53.401 26.7c4.625 1.981 8.465 2.027 13.198 0l53.401-26.7 53.401 26.7c4.499 2.399 10.199 2.098 14.399-.601 4.499-3.001 7.2-7.8 7.2-12.9v-179.999l-75-30z" fill="#c2dbf2"/><g id="Break_File_2_"><path d="m390 105h-90c-8.284 0-15-6.716-15-15v-90c3.9 0 7.8 1.5 10.499 4.499l90 90c3.001 2.701 4.501 6.601 4.501 10.501z" fill="#9db9f2"/><path d="m216.211 165 19.395-19.395c5.859-5.859 5.859-15.352 0-21.211s-15.352-5.859-21.211 0l-19.395 19.395-19.395-19.395c-5.859-5.859-15.352-5.859-21.211 0s-5.859 15.352 0 21.211l19.395 19.395-19.395 19.395c-5.859 5.859-5.859 15.352 0 21.211s15.351 5.86 21.211 0l19.395-19.395 19.395 19.395c5.859 5.859 15.351 5.86 21.211 0 5.859-5.859 5.859-15.352 0-21.211z" fill="#ff6a4d"/></g><path d="m214.395 205.605c5.859 5.859 15.352 5.859 21.211 0s5.859-15.352 0-21.211l-19.395-19.394 19.395-19.395c5.859-5.859 5.859-15.352 0-21.211s-15.352-5.859-21.211 0l-19.395 19.395v42.422z" fill="#f23030"/></g></svg>