<svg id="Capa_1" enable-background="new 0 0 512 512" height="512" viewBox="0 0 512 512" width="512" xmlns="http://www.w3.org/2000/svg"><g><path d="m499.351 437.381h-486.702c-6.986 0-12.649-5.663-12.649-12.648v-103.34c0-6.986 5.663-12.649 12.649-12.649h486.703c6.986 0 12.649 5.663 12.649 12.649v103.339c-.001 6.986-5.664 12.649-12.65 12.649z" fill="#fd4755"/><g fill="#e41f2d"><path d="m165.243 345.674v43.781c0 1.28-.641 2.43-1.673 3.004-2.237 1.241-4.862-1.722-6.445-2.901-3.408-2.539-8.231-1.834-10.77 1.574-4.804 6.451 2.268 12.317 7.606 14.949 2.66 1.312 5.593 2.099 8.569 2.099 2.711 0 5.594-.643 8.511-2.263 5.919-3.286 9.595-9.594 9.595-16.462v-43.781c0-4.251-3.446-7.697-7.697-7.697-4.25 0-7.696 3.445-7.696 7.697z"/><path d="m414.647 400.452c0-4.251-3.446-7.697-7.697-7.697h-15.174v-11.745h13.487c4.251 0 7.697-3.445 7.697-7.697 0-4.251-3.446-7.697-7.697-7.697h-13.487v-11.746h15.174c4.251 0 7.697-3.446 7.697-7.697s-3.446-7.697-7.697-7.697h-22.87c-4.251 0-7.697 3.446-7.697 7.697v54.278c0 4.251 3.446 7.697 7.697 7.697h22.87c4.251.001 7.697-3.445 7.697-7.696z"/><path d="m429.895 399.589c0 .484.05.956.136 1.415.133 1.849.922 3.595 2.247 4.91 1.442 1.431 3.391 2.234 5.422 2.234h.029c.455-.002 11.197-.043 15.493-.118 16.566-.289 28.589-14.654 28.589-34.157 0-20.502-11.72-34.276-29.164-34.276h-15.056c-2.044 0-4.004.813-5.447 2.26-1.444 1.446-2.253 3.407-2.249 5.451v.039.002zm22.752-44.598c12.777 0 13.77 14.453 13.77 18.882 0 9.224-4.163 18.605-13.464 18.766-1.764.031-4.73.056-7.583.075-.02-6.207-.043-14.583-.043-18.899 0-3.619-.014-12.358-.025-18.824z"/><path d="m122.008 353.87c4.251 0 7.697-3.446 7.697-7.697s-3.446-7.697-7.697-7.697h-22.871c-4.251 0-7.697 3.446-7.697 7.697v54.278c0 4.251 3.446 7.697 7.697 7.697h22.871c4.251 0 7.697-3.445 7.697-7.697s-3.446-7.697-7.697-7.697h-15.174v-11.744h13.488c4.251 0 7.697-3.445 7.697-7.697 0-4.251-3.446-7.697-7.697-7.697h-13.488v-11.746z"/><path d="m227.301 353.87c4.251 0 7.697-3.446 7.697-7.697s-3.446-7.697-7.697-7.697h-22.871c-4.251 0-7.697 3.446-7.697 7.697v54.278c0 4.251 3.446 7.697 7.697 7.697h22.871c4.251 0 7.697-3.445 7.697-7.697s-3.446-7.697-7.697-7.697h-15.174v-11.744h13.487c4.251 0 7.697-3.445 7.697-7.697 0-4.251-3.446-7.697-7.697-7.697h-13.487v-11.746z"/><path d="m281.499 353.37c3.947 0 7.752 1.162 11.005 3.359 3.522 2.378 8.307 1.454 10.687-2.07 2.38-3.522 1.453-8.306-2.069-10.686-5.808-3.924-12.593-5.997-19.623-5.997-19.347 0-35.086 15.739-35.086 35.087 0 19.346 15.739 35.086 35.086 35.086 7.756 0 14.725-2.555 20.155-7.391 1.065-.95 2.074-1.99 2.999-3.093 2.73-3.258 2.303-8.113-.955-10.844-3.257-2.732-8.112-2.303-10.843.954-.448.535-.935 1.038-1.443 1.491-2.6 2.315-5.935 3.489-9.914 3.489-10.859 0-19.692-8.834-19.692-19.692.001-10.858 8.834-19.693 19.693-19.693z"/><path d="m340.841 408.149c4.251 0 7.697-3.445 7.697-7.697v-47.082h7.49c4.251 0 7.697-3.446 7.697-7.697s-3.446-7.697-7.697-7.697h-30.252c-4.251 0-7.697 3.446-7.697 7.697s3.446 7.697 7.697 7.697h7.368v47.082c0 4.251 3.446 7.697 7.697 7.697z"/><path d="m75.199 359.91c0-12.093-10.201-21.933-22.739-21.933h-14.556c-.003 0-.006.001-.009.001s-.006-.001-.009-.001c-4.251 0-7.697 3.446-7.697 7.697v54.778c0 4.251 3.446 7.697 7.697 7.697s7.697-3.445 7.697-7.697v-13.255l16.142 18.34c1.521 1.729 3.645 2.612 5.781 2.612 1.806 0 3.62-.632 5.082-1.919 3.191-2.808 3.501-7.672.693-10.863l-13.061-14.84c8.728-3.066 14.979-11.15 14.979-20.617zm-22.739 6.54c-1.61 0-4.229.01-6.801.022-.012-2.495-.028-10.482-.035-13.102h6.836c3.982 0 7.346 2.995 7.346 6.539s-3.364 6.541-7.346 6.541z"/><path d="m511.995 321.39v103.342c0 6.989-5.655 12.654-12.643 12.654h-20.781c6.978 0 12.643-5.665 12.643-12.654v-103.342c0-6.978-5.665-12.643-12.643-12.643h20.781c6.989-.001 12.643 5.664 12.643 12.643z"/></g><circle cx="256" cy="195.861" fill="#fd4755" r="121.246"/><path d="m377.25 195.86c0 66.962-54.288 121.25-121.25 121.25-21.161 0-41.07-5.429-58.383-14.973 12.397 4.29 25.697 6.609 39.541 6.609 66.962 0 121.25-54.288 121.25-121.25 0-45.811-25.41-85.681-62.908-106.298 47.576 16.379 81.75 61.534 81.75 114.662z" fill="#e41f2d"/><path d="m282.664 195.861 27.907-27.907c7.364-7.363 7.364-19.301 0-26.665-7.363-7.364-19.302-7.364-26.664 0l-27.907 27.908-27.907-27.907c-7.363-7.364-19.302-7.364-26.665 0-7.364 7.363-7.364 19.301 0 26.665l27.907 27.907-27.907 27.907c-7.364 7.363-7.364 19.301 0 26.665 3.681 3.682 8.507 5.523 13.332 5.523s9.651-1.841 13.332-5.523l27.908-27.908 27.907 27.907c3.681 3.682 8.507 5.523 13.332 5.523s9.651-1.841 13.332-5.523c7.364-7.363 7.364-19.301 0-26.665z" fill="#faf7f7"/><path d="m310.575 223.764c7.358 7.369 7.358 19.304 0 26.672-3.684 3.684-8.508 5.521-13.331 5.521-4.793 0-9.565-1.806-13.238-5.419.041-.031.072-.061.113-.102 7.358-7.369 7.358-19.304 0-26.672l-18.326-18.319c-5.295-5.293-5.295-13.876 0-19.169l18.326-18.319c7.392-7.402 7.358-19.414-.103-26.774 7.379-7.256 19.232-7.215 26.559.102 7.358 7.368 7.358 19.304 0 26.672l-27.914 27.903z" fill="#ede1dd"/></g></svg>