<svg height="512" viewBox="0 0 128 128" width="512" xmlns="http://www.w3.org/2000/svg"><path d="m15.9 127h80.4a2.947 2.947 0 0 0 2.941-2.953v-110.1a2.947 2.947 0 0 0 -2.941-2.953h-51.666l-31.68 31.806v81.245a2.947 2.947 0 0 0 2.946 2.955z" fill="#dcdcd2"/><path d="m10.918 122h80.4a2.947 2.947 0 0 0 2.941-2.953v-110.097a2.947 2.947 0 0 0 -2.941-2.95h-51.661l-31.68 31.8v81.25a2.947 2.947 0 0 0 2.941 2.95z" fill="#f0f0e6"/><path d="m5.941 117.006h80.4a2.947 2.947 0 0 0 2.941-2.953v-110.1a2.947 2.947 0 0 0 -2.94-2.953h-51.661l-31.681 31.808v81.245a2.947 2.947 0 0 0 2.941 2.953z" fill="#fffffa"/><path d="m34.681 1-31.681 31.808v6h28.739a8.946 8.946 0 0 0 8.917-8.953v-28.855z" fill="#dcdcd2"/><path d="m3 32.808h28.739a2.947 2.947 0 0 0 2.941-2.953v-28.855z" fill="#f0f0e6"/><path d="m34.681 5.883v-4.883l-31.681 31.808h4.864z" fill="#fffffa"/><path d="m53.566 38.808h71.434v15.204h-71.434z" fill="#ffe885"/><path d="m53.566 38.808h71.434v4.398h-71.434z" fill="#fffa96"/><path d="m94.26 61.435h4.977v50.28h-4.977z" fill="#c8c8be"/><path d="m89.283 61.435h4.977v50.28h-4.977z" fill="#dcdcd2"/><path d="m56.207 61.435v46.28a3.992 3.992 0 0 0 3.984 4h29.092v-50.28z" fill="#f0f0e6"/><path d="m118.375 104.292h-58.184a3.992 3.992 0 0 1 -3.984-4v-46.281h66.152v46.28a3.992 3.992 0 0 1 -3.984 4.001z" fill="#e678a0"/><path d="m118.375 99.788h-58.184a3.992 3.992 0 0 1 -3.984-4v4.5a3.992 3.992 0 0 0 3.984 4h58.184a3.992 3.992 0 0 0 3.984-4v-4.5a3.992 3.992 0 0 1 -3.984 4z" fill="#d2648c"/><path d="m56.207 54.011h66.152v5.647h-66.152z" fill="#d2648c"/><path d="m109.4 19.947q-.639-.043-1.289-.044a18.866 18.866 0 0 0 -18.828 18.9h19.167c11.936.005 12.859-18.047.95-18.856zm-.95 12.86h-11.715a12.858 12.858 0 0 1 11.376-6.9q.451 0 .893.03c2.481.168 2.946 1.92 2.9 3.36a3.284 3.284 0 0 1 -3.454 3.511z" fill="#aad2ff"/><path d="m70.455 19.9q-.65 0-1.289.044c-11.909.808-10.985 18.86.951 18.86h19.166a18.866 18.866 0 0 0 -18.828-18.904zm-.339 12.9a3.285 3.285 0 0 1 -3.452-3.513c-.048-1.44.416-3.192 2.9-3.361.287-.02.586-.029.886-.029a12.858 12.858 0 0 1 11.376 6.9z" fill="#bee6ff"/><path d="m81.831 38.808h14.904v65.484h-14.904z" fill="#bee6ff"/><path d="m81.831 38.808h14.904v4.398h-14.904z" fill="#d2faff"/><path d="m81.831 99.788h14.904v4.503h-14.904z" fill="#aad2ff"/><path d="m60.991 17.227a7.44 7.44 0 0 1 -7.425-7.455 7.44 7.44 0 0 1 -7.425 7.455 7.44 7.44 0 0 1 7.425 7.455 7.44 7.44 0 0 1 7.425-7.455z" fill="#ffe885"/><path d="m76.4 11.2a4.5 4.5 0 0 1 -4.489-4.507 4.5 4.5 0 0 1 -4.493 4.507 4.5 4.5 0 0 1 4.489 4.507 4.5 4.5 0 0 1 4.493-4.507z" fill="#ffe885"/><g fill="#785ae6"><path d="m99.236 33.808h-2.5a1 1 0 0 1 -.886-1.465 13.974 13.974 0 0 1 2.693-3.576 1 1 0 0 1 1.693.721v3.32a1 1 0 0 1 -1 1z"/><path d="m94.26 27.035a1 1 0 0 1 -1-1v-15.041a1 1 0 0 1 1-1h2.035a3.952 3.952 0 0 1 3.941 3.953v8.19a1 1 0 0 1 -.526.881 17.857 17.857 0 0 0 -4.71 3.692 1 1 0 0 1 -.74.325zm1-15.041v11.677a19.6 19.6 0 0 1 2.977-2.121v-7.6a1.949 1.949 0 0 0 -1.941-1.953z"/><path d="m96.295 128h-80.395a3.952 3.952 0 0 1 -3.941-3.953v-2.047a1 1 0 0 1 1-1h78.359a1.949 1.949 0 0 0 1.941-1.953v-14.755a1 1 0 0 1 1-1h4.977a1 1 0 0 1 1 1v19.755a3.952 3.952 0 0 1 -3.941 3.953zm-82.341-5v1.044a1.949 1.949 0 0 0 1.946 1.956h80.4a1.949 1.949 0 0 0 1.941-1.953v-18.755h-2.981v13.758a3.952 3.952 0 0 1 -3.942 3.95z"/><path d="m89.283 39.808a1 1 0 0 1 -1-1v-32.808a1 1 0 0 1 1-1h2.035a3.952 3.952 0 0 1 3.942 3.95v17.085a1 1 0 0 1 -.26.675 17.884 17.884 0 0 0 -4.714 12.1 1 1 0 0 1 -1.003.998zm1-32.808v23.12a20.027 20.027 0 0 1 2.977-4.468v-16.702a1.95 1.95 0 0 0 -1.942-1.95z"/><path d="m91.318 123h-80.4a3.952 3.952 0 0 1 -3.941-3.953v-2.043a1 1 0 0 1 1-1h14.265a1 1 0 0 1 0 2h-13.265v1.043a1.949 1.949 0 0 0 1.941 1.953h80.4a1.949 1.949 0 0 0 1.941-1.953v-13.755h-2.976v8.762a3.952 3.952 0 0 1 -3.941 3.953h-49.2a1 1 0 0 1 0-2h49.2a1.949 1.949 0 0 0 1.941-1.953v-9.762a1 1 0 0 1 1-1h4.977a1 1 0 0 1 1 1v14.758a3.952 3.952 0 0 1 -3.942 3.95z"/><path d="m22.242 118.006h-16.301a3.952 3.952 0 0 1 -3.941-3.953v-81.245a1 1 0 0 1 .291-.706l31.681-31.808a1 1 0 0 1 .709-.294h44.9a1 1 0 0 1 0 2h-44.481l-31.1 31.221v80.832a1.949 1.949 0 0 0 1.941 1.953h16.3a1 1 0 0 1 0 2z"/><path d="m86.342 118.006h-49.2a1 1 0 0 1 0-2h49.2a1.949 1.949 0 0 0 1.941-1.953v-8.762h-28.092a5 5 0 0 1 -4.984-5v-45.28h-1.641a1 1 0 0 1 -1-1v-15.2a1 1 0 0 1 1-1h10.262a10.832 10.832 0 0 1 -4.136-8.273c-.162-4.783 2.708-10.138 9.408-10.588q.672-.045 1.356-.046a19.848 19.848 0 0 1 17.827 11.196v-26.147a1.949 1.949 0 0 0 -1.941-1.953 1 1 0 0 1 0-2 3.952 3.952 0 0 1 3.941 3.953v34.855a1 1 0 0 1 -2 0 17.887 17.887 0 0 0 -17.828-17.908q-.617 0-1.222.041c-5.4.367-7.677 4.544-7.542 8.521.136 4.018 2.83 8.341 8.425 8.341a1 1 0 0 1 0 2h-15.55v13.2h1.641a1 1 0 0 1 1 1v46.28a3 3 0 0 0 2.984 3h29.092a1 1 0 0 1 1 1v9.762a3.952 3.952 0 0 1 -3.941 3.961z"/><path d="m81.831 33.808h-11.715c-3.172 0-4.38-2.314-4.451-4.479-.088-2.62 1.312-4.221 3.837-4.392.31-.021.63-.032.954-.032a13.827 13.827 0 0 1 12.262 7.438 1 1 0 0 1 -.886 1.465zm-11.376-6.908c-.277 0-.553.009-.818.027-1.012.069-2.037.4-1.974 2.331.057 1.689.882 2.546 2.453 2.546h9.922a11.812 11.812 0 0 0 -9.583-4.904z"/><path d="m31.739 33.808h-28.739a1 1 0 0 1 -.709-1.708l31.681-31.806a1 1 0 0 1 1.709.706v28.854a3.952 3.952 0 0 1 -3.942 3.954zm-26.332-2h26.332a1.95 1.95 0 0 0 1.941-1.954v-26.433z"/><path d="m12.758 58.188a1 1 0 0 1 0-2h31.5a1 1 0 0 1 0 2z"/><path d="m44.255 68.966h-31.5a1 1 0 0 1 0-2h31.5a1 1 0 0 1 0 2z"/><path d="m12.758 47.41a1 1 0 0 1 0-2h31.5a1 1 0 0 1 0 2z"/><path d="m44.255 79.744h-31.5a1 1 0 0 1 0-2h31.5a1 1 0 0 1 0 2z"/><path d="m34.681 90.522h-21.923a1 1 0 0 1 0-2h21.923a1 1 0 0 1 0 2z"/><path d="m25 104.99h-11.756a1 1 0 1 1 0-2h11.756a1 1 0 0 1 0 2z"/><path d="m46.477 104.99h-11.751a1 1 0 1 1 0-2h11.751a1 1 0 1 1 0 2z"/><path d="m125 55.011h-7.119a1 1 0 0 1 0-2h6.119v-13.2h-69.434v13.2h52.065a1 1 0 0 1 0 2h-53.065a1 1 0 0 1 -1-1v-15.2a1 1 0 0 1 1-1h71.434a1 1 0 0 1 1 1v15.2a1 1 0 0 1 -1 1z"/><path d="m118.375 105.292h-58.184a5 5 0 0 1 -4.984-5v-46.281a1 1 0 0 1 1-1h50.425a1 1 0 0 1 0 2h-49.425v45.28a3 3 0 0 0 2.984 3h58.184a3 3 0 0 0 2.984-3v-45.28h-3.479a1 1 0 0 1 0-2h4.479a1 1 0 0 1 1 1v46.28a5 5 0 0 1 -4.984 5.001z"/><path d="m108.449 39.808h-19.166a1 1 0 0 1 -1-1 19.888 19.888 0 0 1 19.828-19.9q.684 0 1.356.046c6.693.455 9.568 5.805 9.406 10.584-.173 5.102-3.809 10.27-10.424 10.27zm-18.139-2h18.139c5.595 0 8.289-4.324 8.426-8.341.135-3.978-2.146-8.155-7.542-8.521q-.6-.041-1.222-.041a17.884 17.884 0 0 0 -17.8 16.903zm18.14-4h-11.715a1 1 0 0 1 -.886-1.465 13.827 13.827 0 0 1 12.262-7.443q.486 0 .963.033c2.521.17 3.915 1.771 3.826 4.392-.071 2.169-1.278 4.483-4.45 4.483zm-9.922-2h9.922c1.57 0 2.4-.856 2.452-2.546.065-1.931-.957-2.261-1.965-2.33-.274-.019-.549-.028-.826-.028a11.812 11.812 0 0 0 -9.583 4.904z"/><path d="m89.283 39.808h-19.167c-6.614 0-10.251-5.168-10.424-10.273-.162-4.78 2.708-10.135 9.408-10.585q.672-.045 1.356-.046a19.888 19.888 0 0 1 19.828 19.9 1 1 0 0 1 -1.001 1.004zm-18.828-18.908q-.617 0-1.222.041c-5.4.367-7.677 4.544-7.542 8.521.136 4.018 2.83 8.341 8.425 8.341h18.14a17.884 17.884 0 0 0 -17.801-16.903zm11.376 12.9h-11.715c-3.172 0-4.38-2.314-4.451-4.479-.088-2.62 1.312-4.221 3.837-4.392.309-.021.629-.032.953-.032a13.827 13.827 0 0 1 12.262 7.438 1 1 0 0 1 -.886 1.465zm-11.376-6.9c-.277 0-.553.009-.817.027-1.013.069-2.038.4-1.975 2.331.057 1.689.882 2.546 2.453 2.546h9.922a11.812 11.812 0 0 0 -9.583-4.904z"/><path d="m96.735 105.292h-14.9a1 1 0 0 1 -1-1v-65.484a1 1 0 0 1 1-1h14.9a1 1 0 0 1 1 1v65.484a1 1 0 0 1 -1 1zm-13.9-2h12.9v-63.484h-12.9z"/><path d="m53.566 25.682a1 1 0 0 1 -1-1 6.447 6.447 0 0 0 -6.425-6.455 1 1 0 0 1 0-2 6.447 6.447 0 0 0 6.425-6.455 1 1 0 0 1 2 0 6.447 6.447 0 0 0 6.425 6.455 1 1 0 0 1 0 2 6.447 6.447 0 0 0 -6.425 6.455 1 1 0 0 1 -1 1zm-3.453-8.455a8.5 8.5 0 0 1 3.453 3.462 8.5 8.5 0 0 1 3.453-3.462 8.5 8.5 0 0 1 -3.453-3.462 8.5 8.5 0 0 1 -3.453 3.462z"/><path d="m71.907 16.708a1 1 0 0 1 -1-1 3.5 3.5 0 0 0 -3.489-3.508 1 1 0 0 1 0-2 3.5 3.5 0 0 0 3.489-3.507 1 1 0 1 1 2 0 3.5 3.5 0 0 0 3.493 3.507 1 1 0 0 1 0 2 3.5 3.5 0 0 0 -3.489 3.507 1 1 0 0 1 -1.004 1.001zm-1.338-5.508a5.541 5.541 0 0 1 1.338 1.341 5.541 5.541 0 0 1 1.338-1.341 5.541 5.541 0 0 1 -1.338-1.341 5.541 5.541 0 0 1 -1.338 1.341z"/></g></svg>