<svg id="Capa_1" enable-background="new 0 0 512 512" height="512" viewBox="0 0 512 512" width="512" xmlns="http://www.w3.org/2000/svg"><g><path d="m65.5 390.5h20c6.893 0 12.5-5.607 12.5-12.5v-91c0-6.893-5.607-12.5-12.5-12.5h-20c-6.893 0-12.5 5.607-12.5 12.5v91c0 6.893 5.607 12.5 12.5 12.5zm2.5-101h15v86h-15z"/><path d="m356.5 260h-201c-6.893 0-12.5 5.607-12.5 12.5v35c0 6.893 5.607 12.5 12.5 12.5h201c6.893 0 12.5-5.607 12.5-12.5v-35c0-6.893-5.607-12.5-12.5-12.5zm-61.5 15v30h-78v-30zm-137 0h44v30h-44zm196 30h-44v-30h44z"/><path d="m256 199.5c13.233 0 24-10.767 24-24s-10.767-24-24-24-24 10.767-24 24 10.767 24 24 24zm0-33c4.962 0 9 4.038 9 9s-4.038 9-9 9-9-4.038-9-9 4.038-9 9-9z"/><path d="m499.533 181.392-21.876-21.849c-5.192-5.187-12.094-8.043-19.434-8.043h-124.512l-20.926-21.624c-5.151-5.323-12.354-8.376-19.762-8.376h-29.023v-30h57.5c9.649 0 17.5-7.851 17.5-17.5v-25c0-9.649-7.851-17.5-17.5-17.5h-55c-9.649 0-17.5 7.851-17.5 17.5v12.78 22.22 37.5h-30.023c-7.408 0-14.611 3.053-19.762 8.376l-20.926 21.624h-124.512c-7.339 0-14.241 2.856-19.433 8.042l-21.877 21.849c-8.04 8.03-12.467 18.709-12.467 30.071v5.538c0 6.893 5.607 12.5 12.5 12.5h10.5v238.5c0 6.893 5.607 12.5 12.5 12.5h441c6.893 0 12.5-5.607 12.5-12.5v-238.5h10.5c6.893 0 12.5-5.607 12.5-12.5v-5.538c0-11.362-4.427-22.041-12.467-30.07zm-235.533-132.392c0-1.378 1.122-2.5 2.5-2.5h55c1.378 0 2.5 1.122 2.5 2.5v25c0 1.378-1.122 2.5-2.5 2.5h-57.5v-14.72zm-54.005 91.307c2.341-2.419 5.615-3.807 8.982-3.807h74.046c3.367 0 6.641 1.388 8.982 3.808l71.8 74.192h-235.61zm-194.995 74.193v-3.038c0-7.352 2.865-14.262 8.066-19.458l21.877-21.849c2.36-2.357 5.497-3.656 8.833-3.656h109.996l-46.452 48h-51.82c-4.142 0-7.5 3.358-7.5 7.5s3.358 7.5 7.5 7.5h47.5v206h-75v-213.499c0-4.142-3.358-7.5-7.5-7.5zm23 236h75v15h-75zm254.5-86c1.378 0 2.5 1.122 2.5 2.5v68.5h-31.5v-71zm-44 71h-31.5v-68.5c0-1.378 1.122-2.5 2.5-2.5h29zm75.5 15v15h-136v-15zm75 15v-15h75v15zm75-30h-82.5c-4.142 0-7.5 3.358-7.5 7.5v22.5h-45v-17.5c0-6.893-5.607-12.5-12.5-12.5h-16.5v-68.5c0-9.649-7.851-17.5-17.5-17.5h-73c-9.649 0-17.5 7.851-17.5 17.5v68.5h-16.5c-6.893 0-12.5 5.607-12.5 12.5v17.5h-45v-236h256v178.5c0 4.142 3.358 7.5 7.5 7.5s7.5-3.358 7.5-7.5v-178.5h75zm23-221h-102.321l-46.452-48h109.996c3.336 0 6.473 1.298 8.833 3.656l21.877 21.849c5.202 5.195 8.067 12.105 8.067 19.457z"/><path d="m426.5 390.5h20c6.893 0 12.5-5.607 12.5-12.5v-91c0-6.893-5.607-12.5-12.5-12.5h-20c-6.893 0-12.5 5.607-12.5 12.5v91c0 6.893 5.607 12.5 12.5 12.5zm2.5-101h15v86h-15z"/></g></svg>