<svg id="Capa_1" enable-background="new 0 0 512 512" height="512" viewBox="0 0 512 512" width="512" xmlns="http://www.w3.org/2000/svg"><g><path d="m458.878 309.941c2.943-11.13 12.079-19.535 23.283-21.428l29.839-4.684v-55.658l-29.837-4.684c-11.206-1.891-20.342-10.296-23.285-21.426l-.217-.813c-2.993-11.135.738-22.994 9.504-30.211l22.525-18.543-27.708-47.988-27.567 10.327c-10.644 3.988-22.787 1.284-30.936-6.887l-.427-.428c-8.171-8.147-10.875-20.29-6.887-30.935l10.327-27.567-47.988-27.708-18.543 22.525c-7.218 8.767-19.076 12.498-30.208 9.506l-.814-.217c-11.131-2.944-19.537-12.082-21.428-23.287l-4.682-29.835h-55.657l-4.685 29.838c-1.893 11.205-10.297 20.34-21.43 23.285l-.81.216c-11.137 2.992-22.993-.738-30.21-9.505l-18.542-22.525-47.987 27.707 10.326 27.567c3.988 10.645 1.284 22.788-6.882 30.931l-.433.432c-8.147 8.171-20.29 10.875-30.935 6.887l-27.566-10.327-27.708 47.987 22.525 18.544c8.767 7.218 12.498 19.076 9.505 30.208-.06.1-3.895 18.93-23.504 22.241l-29.836 4.685v55.658l29.841 4.685c11.203 1.893 20.338 10.297 23.283 21.43-.002.1 6.059 18.383-9.29 31.019l-22.526 18.544 27.708 47.988 27.567-10.327c10.646-3.988 22.787-1.284 30.931 6.883.055.1 14.253 12.858 7.319 31.367l-10.326 27.567 47.987 27.708 18.543-22.526c7.218-8.768 19.076-12.498 30.211-9.505.1.06 18.925 3.893 22.238 23.499l4.685 29.839h55.658l4.684-29.836c1.892-11.205 10.297-20.343 21.429-23.287.1.002 18.386-6.058 31.02 9.289l18.545 22.525 47.987-27.707-10.327-27.566c-3.988-10.645-1.284-22.788 6.882-30.931.1-.055 12.86-14.253 31.367-7.319l27.567 10.327 27.708-47.988-22.524-18.542c-8.767-7.217-12.498-19.076-9.504-30.214zm-6.876 56.574-2.292 3.97c-.366-.03-36.984-17.187-66.476 12.39l-.363.363c-29.723 29.637-12.43 65.931-12.386 66.472l-3.971 2.293c-.583-.403-22.58-33.328-63.541-22.316l-.705.188c-40.97 10.837-43.998 51.911-44.098 52.125h-4.342c-.124-.265-3.074-41.273-44.095-52.125l-.694-.185c-40.645-10.927-63.028 21.95-63.554 22.313l-3.971-2.292c.029-.353 17.186-36.986-12.39-66.476l-.363-.363c-29.638-29.723-65.93-12.43-66.472-12.385l-2.292-3.97c.403-.584 33.331-22.572 22.313-63.556l-.185-.692c-10.837-40.97-51.91-43.998-52.125-44.098v-4.342c.265-.124 41.274-3.074 52.125-44.097l.186-.695c10.924-40.64-21.95-63.025-22.313-63.552l2.292-3.971c.353.029 36.991 17.183 66.471-12.385l.368-.368c29.723-29.637 12.428-65.959 12.386-66.472l3.971-2.293c.584.403 22.57 33.328 63.551 22.312l.692-.185c40.973-10.836 44-51.911 44.1-52.125h4.343c.24.515 2.798 41.202 44.104 52.127l.689.184c40.864 10.984 63.189-22.062 63.551-22.313l3.97 2.292c-.029.353-17.186 36.986 12.39 66.476l.363.363c29.637 29.722 65.93 12.43 66.472 12.385l2.292 3.971c-.403.584-33.328 22.572-22.313 63.55l.185.695c10.837 40.972 51.911 43.999 52.125 44.099v4.342c-.268.125-41.274 3.069-52.126 44.105l-.184.69c-10.923 40.643 21.949 63.024 22.312 63.551z"/><path d="m256 121c-74.439 0-135 60.561-135 135s60.561 135 135 135 135-60.561 135-135-60.561-135-135-135zm0 240c-57.897 0-105-47.103-105-105s47.103-105 105-105 105 47.103 105 105-47.103 105-105 105z"/><path d="m256 181c-41.355 0-75 33.645-75 75s33.645 75 75 75 75-33.645 75-75-33.645-75-75-75zm0 120c-24.813 0-45-20.187-45-45s20.187-45 45-45 45 20.187 45 45-20.187 45-45 45z"/></g></svg>