<svg height="512" viewBox="0 0 128 128" width="512" xmlns="http://www.w3.org/2000/svg"><g><path d="m121.5 4.75h-115a1.75 1.75 0 0 0 -1.75 1.75v84.529a1.749 1.749 0 0 0 1.75 1.75h49.976l-2.576 15.164a13.76 13.76 0 0 0 -11.554 13.557 1.75 1.75 0 0 0 1.75 1.75h39.804a1.75 1.75 0 0 0 1.75-1.75 13.76 13.76 0 0 0 -11.549-13.557l-2.577-15.164h49.976a1.749 1.749 0 0 0 1.75-1.75v-84.529a1.75 1.75 0 0 0 -1.75-1.75zm-85.417 67.844h55.834a1.749 1.749 0 0 0 1.75-1.75v-56.594h20.083v63.03h-99.5v-63.03h20.083v56.594a1.749 1.749 0 0 0 1.75 1.75zm54.084-64.344v60.844h-52.334v-60.844zm-8.162 111.5h-36.005a10.267 10.267 0 0 1 10.1-8.5h15.8a10.267 10.267 0 0 1 10.105 8.5zm-11.484-12h-13.042l2.549-14.971h7.944zm49.229-18.471h-111.5v-81.029h26.083v2.5h-21.833a1.75 1.75 0 0 0 -1.75 1.75v66.53a1.75 1.75 0 0 0 1.75 1.75h103a1.75 1.75 0 0 0 1.75-1.75v-66.53a1.75 1.75 0 0 0 -1.75-1.75h-21.833v-2.5h26.083z"/><path d="m109.5 34.583a1.75 1.75 0 0 0 1.75-1.75v-8.641a1.75 1.75 0 0 0 -3.5 0v8.641a1.75 1.75 0 0 0 1.75 1.75z"/><path d="m78.195 57.485v-2.561a5.542 5.542 0 0 1 2.205 1.105l1.233-1.7a6.088 6.088 0 0 0 -3.442-1.473v-1.005h-1.548v.992c-2.033.257-3.377 1.569-3.377 3.394 0 1.937 1.376 2.657 3.377 3.169v2.657a5.784 5.784 0 0 1 -2.5-1.313l-1.361 1.617a6.931 6.931 0 0 0 3.858 1.761v1.057h1.552v-1.009c2.372-.176 3.748-1.521 3.748-3.476 0-1.982-1.488-2.7-3.745-3.215zm-1.552-.416c-.7-.24-.993-.544-.993-1.072a1.177 1.177 0 0 1 .993-1.1zm1.552 5.09v-2.368c.977.272 1.361.56 1.361 1.168 0 .592-.464 1.088-1.361 1.2z"/><path d="m73.917 32.834h6.916a1.75 1.75 0 0 0 0-3.5h-6.916a1.75 1.75 0 1 0 0 3.5z"/><path d="m73.917 40.422h6.916a1.75 1.75 0 0 0 0-3.5h-6.916a1.75 1.75 0 0 0 0 3.5z"/><path d="m73.917 25.246h6.916a1.75 1.75 0 0 0 0-3.5h-6.916a1.75 1.75 0 0 0 0 3.5z"/><path d="m73.917 17.657h6.916a1.75 1.75 0 0 0 0-3.5h-6.916a1.75 1.75 0 0 0 0 3.5z"/><path d="m47.167 48.01h33.666a1.75 1.75 0 0 0 0-3.5h-33.666a1.75 1.75 0 0 0 0 3.5z"/><path d="m47.167 55.6h19.208a1.75 1.75 0 0 0 0-3.5h-19.208a1.75 1.75 0 0 0 0 3.5z"/><path d="m47.167 63.187h19.208a1.75 1.75 0 0 0 0-3.5h-19.208a1.75 1.75 0 0 0 0 3.5z"/><path d="m57.167 37.657a11.75 11.75 0 1 0 -11.75-11.75 11.763 11.763 0 0 0 11.75 11.75zm0-20a8.25 8.25 0 1 1 -8.25 8.25 8.259 8.259 0 0 1 8.25-8.25z"/><path d="m53.787 30.31a1.752 1.752 0 0 0 2.475 0l6.33-6.331a1.75 1.75 0 1 0 -2.475-2.474l-5.093 5.095-.807-.808a1.75 1.75 0 0 0 -2.475 2.476z"/></g></svg>