<svg height="512" viewBox="0 0 128 128" width="512" xmlns="http://www.w3.org/2000/svg"><g><path d="m73.25 113.333h-18.5l4.75-27.875h9z" fill="#67b5bc"/><path d="m6.5 6.5h115v84.529h-115z" fill="#79d5dd"/><path d="m30.735-5.735h66.529v103h-66.529z" fill="#f0f0fb" transform="matrix(0 1 -1 0 109.765 -18.235)"/><path d="m109.5 34.583a1.75 1.75 0 0 1 -1.75-1.75v-8.641a1.75 1.75 0 0 1 3.5 0v8.641a1.75 1.75 0 0 1 -1.75 1.75z" fill="#d0d0da"/><path d="m31.828 10.755h64.344v55.833h-64.344z" fill="#5360d9" transform="matrix(0 1 -1 0 102.672 -25.328)"/><path d="m71.9 109.5h-15.8a12 12 0 0 0 -12 12h39.8a12 12 0 0 0 -12-12z" fill="#79d5dd"/><path d="m78.195 64.176v1.009h-1.552v-1.057a6.931 6.931 0 0 1 -3.858-1.761l1.361-1.617a5.784 5.784 0 0 0 2.5 1.313v-2.657c-2-.512-3.377-1.232-3.377-3.169 0-1.825 1.344-3.137 3.377-3.394v-.992h1.552v1.008a6.088 6.088 0 0 1 3.442 1.473l-1.233 1.7a5.542 5.542 0 0 0 -2.209-1.105v2.561c2.254.512 3.742 1.23 3.742 3.212 0 1.955-1.376 3.3-3.745 3.476zm-1.552-7.107v-2.177a1.177 1.177 0 0 0 -.993 1.108c0 .525.288.829.993 1.069zm2.913 3.89c0-.608-.384-.9-1.361-1.168v2.368c.897-.112 1.361-.608 1.361-1.2z" fill="#f0f0fb"/><g><g fill="#f0f0fb"><path d="m80.833 32.834h-6.916a1.75 1.75 0 1 1 0-3.5h6.916a1.75 1.75 0 0 1 0 3.5z"/><path d="m80.833 40.422h-6.916a1.75 1.75 0 0 1 0-3.5h6.916a1.75 1.75 0 0 1 0 3.5z"/><path d="m80.833 25.246h-6.916a1.75 1.75 0 0 1 0-3.5h6.916a1.75 1.75 0 0 1 0 3.5z"/><path d="m80.833 17.657h-6.916a1.75 1.75 0 0 1 0-3.5h6.916a1.75 1.75 0 0 1 0 3.5z"/><path d="m80.833 48.01h-33.666a1.75 1.75 0 0 1 0-3.5h33.666a1.75 1.75 0 0 1 0 3.5z"/><path d="m66.375 55.6h-19.208a1.75 1.75 0 0 1 0-3.5h19.208a1.75 1.75 0 0 1 0 3.5z"/><path d="m66.375 63.187h-19.208a1.75 1.75 0 0 1 0-3.5h19.208a1.75 1.75 0 0 1 0 3.5z"/></g><circle cx="57.167" cy="25.907" fill="#d85134" r="10"/><path d="m55.024 30.822a1.746 1.746 0 0 1 -1.237-.512l-2.045-2.044a1.75 1.75 0 0 1 2.475-2.476l.807.808 5.093-5.093a1.75 1.75 0 1 1 2.475 2.474l-6.33 6.331a1.747 1.747 0 0 1 -1.238.512z" fill="#f0f0fb"/></g></g></svg>