<?xml version="1.0"?>
<svg xmlns="http://www.w3.org/2000/svg" xmlns:xlink="http://www.w3.org/1999/xlink" width="512" height="512" viewBox="0 0 128 128"><defs><linearGradient id="a" x1="115.12" y1="99.884" x2="12.88" y2="-2.355" gradientUnits="userSpaceOnUse"><stop offset="0" stop-color="#5360d9"/><stop offset="1" stop-color="#79d5dd"/></linearGradient></defs><path d="M123.25,74.063v4.125a1.75,1.75,0,0,1-3.5,0V74.063a1.75,1.75,0,1,1,3.5,0Zm0-67.563V67.313a1.75,1.75,0,0,1-3.5,0V8.25H93.667v2.5H115.5a1.75,1.75,0,0,1,1.75,1.75V79.03a1.75,1.75,0,0,1-1.75,1.75H12.5a1.75,1.75,0,0,1-1.75-1.75V12.5a1.75,1.75,0,0,1,1.75-1.75H34.333V8.25H8.25V89.279h111.5V84.313a1.75,1.75,0,1,1,3.5,0v6.716a1.749,1.749,0,0,1-1.75,1.75H71.524l2.581,15.164A13.76,13.76,0,0,1,85.654,121.5a1.75,1.75,0,0,1-1.75,1.75H44.1a1.75,1.75,0,0,1-1.75-1.75A13.76,13.76,0,0,1,53.9,107.943l1.562-9.175a1.75,1.75,0,0,1,3.451.586l-1.429,8.4H70.521L67.972,92.779H6.5a1.749,1.749,0,0,1-1.75-1.75V6.5A1.75,1.75,0,0,1,6.5,4.75h115A1.75,1.75,0,0,1,123.25,6.5ZM71.9,111.25H56.1a10.267,10.267,0,0,0-10.1,8.5h36.01A10.267,10.267,0,0,0,71.9,111.25ZM37.833,39.625V69.094H90.167V8.25H37.833v22a1.75,1.75,0,0,1-3.5,0v-16H14.25V77.28h99.5V14.25H93.667V70.844a1.749,1.749,0,0,1-1.75,1.75H36.083a1.749,1.749,0,0,1-1.75-1.75V39.625a1.75,1.75,0,0,1,3.5,0ZM109.5,34.583a1.75,1.75,0,0,0,1.75-1.75V24.192a1.75,1.75,0,0,0-3.5,0v8.641A1.75,1.75,0,0,0,109.5,34.583ZM81.94,60.7c0,1.952-1.376,3.3-3.745,3.473v1.009H76.643V64.128a6.931,6.931,0,0,1-3.858-1.761l1.361-1.617a5.784,5.784,0,0,0,2.5,1.313V59.406c-2-.512-3.377-1.232-3.377-3.169,0-1.825,1.344-3.137,3.377-3.394v-.992h1.552v1.008a6.088,6.088,0,0,1,3.442,1.473l-1.233,1.7a5.542,5.542,0,0,0-2.209-1.105v2.561C80.452,58,81.94,58.718,81.94,60.7Zm-5.3-5.811A1.177,1.177,0,0,0,75.65,56c0,.528.288.832.993,1.072Zm2.913,6.067c0-.608-.384-.9-1.361-1.168v2.368C79.092,62.047,79.556,61.551,79.556,60.959ZM73.917,32.834h6.916a1.75,1.75,0,0,0,0-3.5H73.917a1.75,1.75,0,1,0,0,3.5Zm0,7.588h6.916a1.75,1.75,0,0,0,0-3.5H73.917a1.75,1.75,0,0,0,0,3.5Zm0-15.176h6.916a1.75,1.75,0,0,0,0-3.5H73.917a1.75,1.75,0,0,0,0,3.5Zm0-7.589h6.916a1.75,1.75,0,0,0,0-3.5H73.917a1.75,1.75,0,0,0,0,3.5ZM47.167,48.01H80.833a1.75,1.75,0,0,0,0-3.5H47.167a1.75,1.75,0,0,0,0,3.5Zm0,7.589H66.375a1.75,1.75,0,0,0,0-3.5H47.167a1.75,1.75,0,0,0,0,3.5Zm0,7.588H66.375a1.75,1.75,0,0,0,0-3.5H47.167a1.75,1.75,0,0,0,0,3.5Zm-1.75-37.28a11.75,11.75,0,1,1,11.75,11.75A11.763,11.763,0,0,1,45.417,25.907Zm3.5,0a8.25,8.25,0,1,0,8.25-8.25A8.259,8.259,0,0,0,48.917,25.907Zm4.87,4.4a1.752,1.752,0,0,0,2.475,0l6.33-6.331a1.75,1.75,0,1,0-2.475-2.474L55.024,26.6l-.807-.808a1.75,1.75,0,0,0-2.475,2.476Z" fill="url(#a)"/></svg>
