<svg height="480pt" viewBox="0 -16 480 480" width="480pt" xmlns="http://www.w3.org/2000/svg"><path d="m192 392v-31.839844c-.019531-10.710937-7.105469-20.125-17.390625-23.105468l-17.410156-4.964844-24.398438 18.308594c-2.84375 2.136718-6.757812 2.136718-9.601562 0l-24.398438-18.308594-17.402343 4.957031c-10.289063 2.984375-17.378907 12.398437-17.398438 23.113281v31.839844h16v-32h16v32h64v-32h16v32zm0 0"/><path d="m105.464844 248c7.898437.007812 15.621094-2.332031 22.191406-6.71875l11.902344-7.9375c1.914062-1.273438 4.277344-1.667969 6.5-1.074219 2.21875.589844 4.078125 2.105469 5.101562 4.164063l3.558594 7.132812c1.050781 2.117188 2.984375 3.660156 5.28125 4.21875-.058594-17.675781-14.433594-31.953125-32.109375-31.894531-17.671875.0625-31.949219 14.4375-31.890625 32.109375zm0 0"/><path d="m128 312c-2.6875.003906-5.367188-.265625-8-.800781v8.800781c-.027344 2.277344-1.03125 4.433594-2.761719 5.921875l10.761719 8.078125 10.761719-8.078125c-1.730469-1.488281-2.734375-3.644531-2.761719-5.921875v-8.800781c-2.632812.535156-5.3125.804687-8 .800781zm0 0"/><path d="m152 272v-10.328125c-4.679688-2.046875-8.570312-5.554687-11.089844-10l-4.382812 2.921875c-9.195313 6.140625-20.003906 9.417969-31.0625 9.40625h-1.464844v8c0 13.253906 10.746094 24 24 24s24-10.746094 24-24zm0 0"/><path d="m32 432h416v16h-416zm0 0"/><path d="m258.34375 130.34375c1.5-1.5 3.535156-2.34375 5.65625-2.34375h104c4.417969 0 8-3.582031 8-8v-112c0-4.417969-3.582031-8-8-8h-208c-4.417969 0-8 3.582031-8 8v112c0 4.417969 3.582031 8 8 8h56c4.417969 0 8 3.582031 8 8v28.6875zm-66.34375-106.34375h144v16h-144zm0 32h144v16h-144zm0 48v-16h144v16zm0 0"/><path d="m8 256h40v-16h-32v-176h40v-16h-48c-4.417969 0-8 3.582031-8 8v192c0 4.417969 3.582031 8 8 8zm0 0"/><path d="m72 48h16v16h-16zm0 0"/><path d="m104 48h16v16h-16zm0 0"/><path d="m432 136h16v-80c0-4.417969-3.582031-8-8-8h-32v16h24zm0 0"/><path d="m432 152h16v16h-16zm0 0"/><path d="m432 184h16v16h-16zm0 0"/><path d="m264 344h56v-40c0-4.417969 3.582031-8 8-8h32c4.417969 0 8 3.582031 8 8v40h56c4.417969 0 8-3.582031 8-8v-96c0-4.417969-3.582031-8-8-8h-160c-4.417969 0-8 3.582031-8 8v96c0 4.417969 3.582031 8 8 8zm0 0"/><path d="m336 312v64h-24v16h64v-16h-24v-64zm0 0"/><path d="m0 408h480v16h-480zm0 0"/></svg>