<svg id="conference" enable-background="new 0 0 300 300" height="512" viewBox="0 0 300 300" width="512" xmlns="http://www.w3.org/2000/svg"><g><path d="m160.804 62.461c2.478-.345 4.207-2.633 3.863-5.11s-2.632-4.207-5.11-3.862-4.207 2.632-3.862 5.11c.344 2.477 2.632 4.206 5.109 3.862z"/><path d="m82 44c2.209 0 4-1.789 4-4v-12c0-2.211-1.791-4-4-4s-4 1.789-4 4v12c0 2.211 1.791 4 4 4z"/><path d="m82 52c-2.209 0-4 1.789-4 4v12c0 2.211 1.791 4 4 4s4-1.789 4-4v-12c0-2.211-1.791-4-4-4z"/><path d="m62 52h12c2.209 0 4-1.789 4-4s-1.791-4-4-4h-12c-2.209 0-4 1.789-4 4s1.791 4 4 4z"/><path d="m90 52h12c2.209 0 4-1.789 4-4s-1.791-4-4-4h-12c-2.209 0-4 1.789-4 4s1.791 4 4 4z"/><path d="m151.596 224c-3.378 0-6.117 2.738-6.117 6.116s2.739 6.117 6.117 6.117 6.116-2.739 6.116-6.117-2.738-6.116-6.116-6.116z"/><path d="m243.48 76h-186.96c-12.418 0-22.52 10.102-22.52 22.52v126.953c0 12.422 10.105 22.527 22.527 22.527h68.169l-5.714 20h-40.982c-2.209 0-4 1.789-4 4s1.791 4 4 4h148c2.209 0 4-1.789 4-4s-1.791-4-4-4h-40.983l-5.715-20h64.179c12.418 0 22.52-10.102 22.52-22.52v-126.96c-.001-12.418-10.103-22.52-22.521-22.52zm-186.96 8h89.48v36c0 2.211 1.791 4 4 4s4-1.789 4-4v-36h89.48c8.006 0 14.52 6.512 14.52 14.52v45.48h-12.281c-1.298-9.154-6.972-16.792-14.81-20.852 4.301-3.671 7.091-9.063 7.091-15.148 0-11.027-8.973-20-20-20s-20 8.973-20 20c0 6.096 2.8 11.496 7.115 15.167-8.968 4.673-15.115 14.042-15.115 24.833 0 2.211 1.791 4 4 4h64v60h-20.32c-1.307-9.074-6.959-16.75-14.795-20.833 4.315-3.671 7.115-9.071 7.115-15.167 0-11.027-8.973-20-20-20s-20 8.973-20 20c0 6.096 2.8 11.496 7.115 15.167-7.836 4.083-13.488 11.759-14.795 20.833h-28.32v-28c0-2.211-1.791-4-4-4s-4 1.789-4 4v28h-24.32c-1.307-9.074-6.959-16.75-14.795-20.833 4.315-3.671 7.115-9.071 7.115-15.167 0-11.027-8.973-20-20-20s-20 8.973-20 20c0 6.096 2.8 11.496 7.115 15.167-7.836 4.083-13.488 11.759-14.795 20.833h-24.32v-60h64c2.209 0 4-1.789 4-4 0-10.791-6.147-20.16-15.115-24.833 4.315-3.671 7.115-9.071 7.115-15.167 0-11.027-8.973-20-20-20s-20 8.973-20 20c0 6.102 2.805 11.507 7.128 15.178-7.815 4.076-13.536 11.718-14.845 20.822h-12.283v-45.48c0-8.008 6.514-14.52 14.52-14.52zm149.48 24c0-6.617 5.383-12 12-12s12 5.383 12 12-5.383 12-12 12-12-5.383-12-12zm31.604 36h-39.201c1.857-9.117 9.939-16 19.598-16 9.683 0 17.757 6.809 19.603 16zm-39.604 32c0-6.617 5.383-12 12-12s12 5.383 12 12-5.383 12-12 12-12-5.383-12-12zm31.598 36h-39.195c1.857-9.117 9.939-16 19.598-16s17.739 6.883 19.597 16zm-147.598-36c0-6.617 5.383-12 12-12s12 5.383 12 12-5.383 12-12 12-12-5.383-12-12zm31.598 36h-39.196c1.857-9.117 9.939-16 19.598-16s17.74 6.883 19.598 16zm-43.598-104c0-6.617 5.383-12 12-12s12 5.383 12 12-5.383 12-12 12-12-5.383-12-12zm-7.6 36c1.865-9.156 10.018-16 19.6-16 9.658 0 17.74 6.883 19.598 16zm114.298 124h-49.396l5.714-20h37.967zm66.782-28h-186.953c-8.009 0-14.527-6.516-14.527-14.527v-5.473h216v5.48c0 8.008-6.514 14.52-14.52 14.52z"/><path d="m124.135 172h33.16c4.607 0 8.391-3.598 8.686-8.133l14.988 3.996c1.201.332 2.484.066 3.469-.691s1.562-1.93 1.562-3.172v-24c0-1.242-.578-2.414-1.562-3.172-.984-.754-2.264-1.016-3.469-.691l-14.988 3.996c-.295-4.535-4.078-8.133-8.686-8.133h-33.16c-5.588 0-10.135 4.547-10.135 10.137v19.727c0 5.589 4.547 10.136 10.135 10.136zm-2.135-29.863c0-1.18.957-2.137 2.135-2.137h33.16c.389 0 .705.316.705.703v4.629c0 1.242.578 2.414 1.562 3.172.988.758 2.27 1.031 3.469.691l14.969-3.988v13.586l-14.969-3.988c-1.203-.332-2.482-.066-3.469.691-.984.758-1.562 1.93-1.562 3.172v4.629c0 .387-.316.703-.705.703h-33.16c-1.178 0-2.135-.957-2.135-2.137z"/></g></svg>